<svg xmlns="http://www.w3.org/2000/svg" width="64" height="64" viewBox="0 0 64 64" role="img" aria-label="World Interesting News">
  <defs>
    <linearGradient id="bg" x1="10" y1="8" x2="56" y2="58" gradientUnits="userSpaceOnUse">
      <stop stop-color="#0f766e"/>
      <stop offset="1" stop-color="#ef4444"/>
    </linearGradient>
  </defs>
  <rect width="64" height="64" rx="14" fill="#0f172a"/>
  <rect x="5" y="5" width="54" height="54" rx="12" fill="url(#bg)"/>
  <circle cx="21" cy="32" r="13" fill="none" stroke="#fff" stroke-width="3"/>
  <path d="M8 32h26M21 19c5 4 7 8 7 13s-2 9-7 13M21 19c-5 4-7 8-7 13s2 9 7 13M11 24c6 3 14 3 20 0M11 40c6-3 14-3 20 0" fill="none" stroke="#fff" stroke-width="2" stroke-linecap="round"/>
  <text x="37" y="29" fill="#fff" font-family="Arial, Helvetica, sans-serif" font-size="9" font-weight="900" text-anchor="middle">WORLD</text>
  <text x="39" y="43" fill="#fff" font-family="Arial, Helvetica, sans-serif" font-size="14" font-weight="900" text-anchor="middle">NEWS</text>
</svg>
